<svg t="1628999603403" class="icon" viewBox="0 0 1024 1024" version="1.1" xmlns="http://www.w3.org/2000/svg" p-id="2405" width="32" height="32">
                    <path d="M893.1328 520.3968c-2.9696 2.8672-6.7584 4.3008-10.6496 4.3008-3.9936 0-8.0896-1.536-11.0592-4.7104l-48.3328-50.3808v392.0896c0 8.4992-6.8608 15.36-15.36 15.36h-198.656c-8.4992 0-15.36-6.8608-15.36-15.36s6.8608-15.36 15.36-15.36h183.296V437.6576L517.4272 151.1424 242.4832 437.6576v408.6784h168.0384V617.1648c0-8.4992 6.8608-15.36 15.36-15.36H609.28c8.4992 0 15.36 6.8608 15.36 15.36s-6.8608 15.36-15.36 15.36H441.1392v229.1712c0 8.4992-6.8608 15.36-15.36 15.36h-198.656c-8.4992 0-15.36-6.8608-15.36-15.36V469.6064l-48.3328 50.3808c-5.8368 6.144-15.5648 6.3488-21.7088 0.4096-6.144-5.8368-6.3488-15.5648-0.4096-21.7088l365.056-380.3136c2.8672-2.9696 6.8608-4.7104 11.0592-4.7104 4.1984 0 8.192 1.7408 11.0592 4.7104L893.5424 498.688c5.9392 6.144 5.7344 15.872-0.4096 21.7088z" fill="#d81e06" p-id="2406"></path>
                    <path d="M609.4848 874.5984c-9.0112 0-16.384-7.3728-16.384-16.384V620.4416c0-9.0112 7.3728-16.384 16.384-16.384s16.384 7.3728 16.384 16.384v237.7728c0 9.0112-7.2704 16.384-16.384 16.384z" fill="#d81e06" p-id="2407"></path>
                </svg>