<?xml version="1.0" standalone="no"?><!DOCTYPE svg PUBLIC "-//W3C//DTD SVG 1.1//EN" "http://www.w3.org/Graphics/SVG/1.1/DTD/svg11.dtd"><svg t="1660122515476" class="icon" viewBox="0 0 1024 1024" version="1.1" xmlns="http://www.w3.org/2000/svg" p-id="2282" xmlns:xlink="http://www.w3.org/1999/xlink" width="200" height="200"><defs><style type="text/css"></style></defs><path d="M320 864a32 32 0 0 1 0 64H224a32 32 0 0 1-32-32V480C192 370.88 296.192 197.28 467.328 30.464a64 64 0 0 1 89.344 0C727.808 197.28 832 370.88 832 480v416a32 32 0 0 1-32 32h-96a32 32 0 0 1 0-64h64V480c0-87.744-96.064-247.808-256-403.712C352.064 232.192 256 392.256 256 480v384h64z" fill="#1296db" p-id="2283"></path><path d="M512 608a128 128 0 1 1 0-256 128 128 0 0 1 0 256z m0-64a64 64 0 1 0 0-128 64 64 0 0 0 0 128zM832 864h128v-142.88l-128-85.312V864z m163.52-196.128a64 64 0 0 1 28.48 53.248V864a64 64 0 0 1-64 64h-192V516.192l227.52 151.68zM192 864H64v-142.88l128-85.312V864zM28.48 667.872A64 64 0 0 0 0 721.12V864a64 64 0 0 0 64 64h192V516.192l-227.52 151.68z" fill="#1296db" p-id="2284"></path><path d="M416 864v64-64z m0-32a32 32 0 0 1 32 32v64a32 32 0 0 1-64 0v-64a32 32 0 0 1 32-32zM512 864v128-128z m0-32a32 32 0 0 1 32 32v128a32 32 0 0 1-64 0v-128a32 32 0 0 1 32-32zM608 864v64-64z m0-32a32 32 0 0 1 32 32v64a32 32 0 0 1-64 0v-64a32 32 0 0 1 32-32z" fill="#1296db" p-id="2285"></path></svg>