<svg width="28" height="28" viewBox="0 0 28 28" fill="none" xmlns="http://www.w3.org/2000/svg">
    <rect x="3" y="3" width="22" height="22" rx="2" fill="#C6341F" />
    <path
        d="M19.8333 7.58325H10.7567C10.5865 7.58325 10.4233 7.65086 10.3029 7.77119C10.1826 7.89153 10.115 8.05474 10.115 8.22493C10.115 8.39511 10.1826 8.55832 10.3029 8.67866C10.4233 8.799 10.5865 8.8666 10.7567 8.8666H19.8333C20.0035 8.8666 20.1667 8.799 20.287 8.67866C20.4074 8.55832 20.475 8.39511 20.475 8.22493C20.475 8.05474 20.4074 7.89153 20.287 7.77119C20.1667 7.65086 20.0035 7.58325 19.8333 7.58325ZM8.16666 7.58325C7.99538 7.58322 7.83094 7.65044 7.70874 7.77046C7.58654 7.89047 7.51636 8.05368 7.51331 8.22493C7.51636 8.39618 7.58654 8.55938 7.70874 8.67939C7.83094 8.79941 7.99538 8.86664 8.16666 8.8666C8.33683 8.8666 8.50004 8.79899 8.62037 8.67865C8.7407 8.55831 8.8083 8.3951 8.8083 8.22493C8.8083 8.05475 8.7407 7.89154 8.62037 7.7712C8.50004 7.65087 8.33683 7.58326 8.16666 7.58325ZM19.8333 11.4333H10.7567C10.5865 11.4333 10.4233 11.5009 10.3029 11.6212C10.1826 11.7415 10.115 11.9047 10.115 12.0749C10.115 12.2451 10.1826 12.4083 10.3029 12.5287C10.4233 12.649 10.5865 12.7166 10.7567 12.7166H19.8333C20.0035 12.7166 20.1667 12.649 20.287 12.5287C20.4074 12.4083 20.475 12.2451 20.475 12.0749C20.475 11.9047 20.4074 11.7415 20.287 11.6212C20.1667 11.5009 20.0035 11.4333 19.8333 11.4333ZM8.16666 11.4333C7.99538 11.4332 7.83094 11.5004 7.70874 11.6205C7.58654 11.7405 7.51636 11.9037 7.51331 12.0749C7.51636 12.2462 7.58654 12.4094 7.70874 12.5294C7.83094 12.6494 7.99538 12.7166 8.16666 12.7166C8.33683 12.7166 8.50004 12.649 8.62037 12.5287C8.7407 12.4083 8.8083 12.2451 8.8083 12.0749C8.8083 11.9047 8.7407 11.7415 8.62037 11.6212C8.50004 11.5009 8.33683 11.4333 8.16666 11.4333ZM19.8333 15.2833H10.7567C10.5865 15.2833 10.4233 15.3509 10.3029 15.4712C10.1826 15.5915 10.115 15.7547 10.115 15.9249C10.115 16.0951 10.1826 16.2583 10.3029 16.3787C10.4233 16.499 10.5865 16.5666 10.7567 16.5666H19.8333C20.0035 16.5666 20.1667 16.499 20.287 16.3787C20.4074 16.2583 20.475 16.0951 20.475 15.9249C20.475 15.7547 20.4074 15.5915 20.287 15.4712C20.1667 15.3509 20.0035 15.2833 19.8333 15.2833ZM8.16666 15.2833C7.99538 15.2832 7.83094 15.3504 7.70874 15.4705C7.58654 15.5905 7.51636 15.7537 7.51331 15.9249C7.51636 16.0962 7.58654 16.2594 7.70874 16.3794C7.83094 16.4994 7.99538 16.5666 8.16666 16.5666C8.33683 16.5666 8.50004 16.499 8.62037 16.3787C8.7407 16.2583 8.8083 16.0951 8.8083 15.9249C8.8083 15.7547 8.7407 15.5915 8.62037 15.4712C8.50004 15.3509 8.33683 15.2833 8.16666 15.2833ZM19.8333 19.1333H10.7567C10.6724 19.1333 10.5889 19.1498 10.5111 19.1821C10.4332 19.2143 10.3625 19.2616 10.3029 19.3212C10.2433 19.3808 10.1961 19.4515 10.1638 19.5294C10.1316 19.6072 10.115 19.6907 10.115 19.7749C10.115 19.9451 10.1826 20.1083 10.3029 20.2287C10.4233 20.349 10.5865 20.4166 10.7567 20.4166H19.8333C20.0035 20.4166 20.1667 20.349 20.287 20.2287C20.4074 20.1083 20.475 19.9451 20.475 19.7749C20.475 19.6047 20.4074 19.4415 20.287 19.3212C20.1667 19.2009 20.0035 19.1333 19.8333 19.1333ZM8.16666 19.1333C7.99538 19.1332 7.83094 19.2004 7.70874 19.3205C7.58654 19.4405 7.51636 19.6037 7.51331 19.7749C7.51636 19.9462 7.58654 20.1094 7.70874 20.2294C7.83094 20.3494 7.99538 20.4166 8.16666 20.4166C8.3272 20.4173 8.48215 20.3577 8.60094 20.2497C8.71972 20.1417 8.79371 19.9931 8.8083 19.8333C8.81643 19.7442 8.80586 19.6545 8.77728 19.5698C8.74869 19.485 8.70272 19.4072 8.64231 19.3413C8.58189 19.2754 8.50838 19.2229 8.42647 19.187C8.34456 19.1512 8.25606 19.1329 8.16666 19.1333Z"
        fill="white" />
</svg>