<svg t="1628989402458" class="icon" viewBox="0 0 1024 1024" version="1.1" xmlns="http://www.w3.org/2000/svg" p-id="4946" width="32" height="32">
                    <path d="M941.4 928.3H82c-9.9 0-17.9-8-17.9-17.9 0-9.9 8-17.9 17.9-17.9h859.4c9.9 0 17.9 8 17.9 17.9 0 9.9-8 17.9-17.9 17.9z" fill="#d81e06" p-id="4947"></path>
                    <path d="M834 418.9c19.7 0 35.8 16.9 35.8 37.7v433.9h-197V418.9H834m0-37.7H637v547.1h268.6V456.7c0-41.7-32-75.5-71.6-75.5z" fill="#d81e06" p-id="4948"></path>
                    <path d="M601.2 136c19.7 0 35.8 16.9 35.8 37.7v716.9H386.4V173.7c0-20.8 16.1-37.7 35.8-37.7h179m0-37.8h-179c-39.6 0-71.6 33.8-71.6 75.5v754.6h322.3V173.7c0-41.7-32.1-75.5-71.7-75.5z" fill="#d81e06" p-id="4949"></path>
                    <path d="M350.6 286.9v603.7h-197v-566c0-20.8 16.1-37.7 35.8-37.7h161.2m35.8-37.7h-197c-39.6 0-71.6 33.8-71.6 75.5v603.7h268.6V249.2z" fill="#d81e06" p-id="4950"></path>
                </svg>